<svg id="l_d_5" xmlns="http://www.w3.org/2000/svg" xmlns:xlink="http://www.w3.org/1999/xlink" viewBox="0 0 1800 1500" width="1800" height="1500" preserveAspectRatio="xMidYMid meet" style="width: 100%; height: 100%; transform: translate3d(0px, 0px, 0px);"><defs id="l_d_6"><clipPath id="__lottie_element_2"><rect id="l_d_9" width="1800" height="1500" x="0" y="0"></rect></clipPath></defs><g id="l_d_7" clip-path="url(#__lottie_element_2)"><g id="l_d_22" style="display: block;" transform="matrix(0.48907381296157837,-0.10395584255456924,0.10395584255456924,0.48907381296157837,-35.753662109375,16.96478271484375)" opacity="1"><path id="l_d_26" fill="rgb(255,255,255)" fill-opacity="1" d=" M22.441999435424805,29.812000274658203 C35.7130012512207,38.84700012207031 56.04100036621094,48.446998596191406 67.0530014038086,50.987998962402344 C78.06500244140625,53.52899932861328 39.948001861572266,52.11800003051758 24.982999801635742,59.45899963378906 C10.017999649047852,66.80000305175781 -1.5579999685287476,70.75299835205078 -6.076000213623047,71.88200378417969 C-10.593999862670898,73.01100158691406 0.13600000739097595,59.17599868774414 -2.4049999713897705,36.5880012512207 C-2.4049999713897705,36.5880012512207 -16.41200065612793,17.511999130249023 -46.73500061035156,2.1410000324249268 C-63.66999816894531,-6.443999767303467 -70.62000274658203,-8.390000343322754 -85.6989974975586,-15.928999900817871 C-93.04000091552734,-19.600000381469727 -126.19400024414062,-43.625999450683594 -84.85199737548828,-29.48200035095215 C-65.22000122070312,-22.764999389648438 -54.07600021362305,-17.340999603271484 -44.194000244140625,-11.411999702453613 C-26.572999954223633,-0.8389999866485596 -20.47599983215332,2.4230000972747803 -20.47599983215332,2.4230000972747803 C-20.47599983215332,2.4230000972747803 -21.322999954223633,3.8350000381469727 -15.394000053405762,1.0119999647140503 C-9.46500015258789,-1.812000036239624 -1.840999960899353,6.093999862670898 -1.840999960899353,6.093999862670898 C-1.840999960899353,6.093999862670898 19.618000030517578,-16.777000427246094 33.736000061035156,-27.224000930786133 C47.854000091552734,-37.67100143432617 63.52899932861328,-44.612998962402344 80.04100036621094,-50.941001892089844 C127.19400024414062,-69.01100158691406 101.5,-40.777000427246094 87.9469985961914,-32.305999755859375 C74.39399719238281,-23.834999084472656 67.61799621582031,-18.18899917602539 52.37099838256836,-4.071000099182129 C37.124000549316406,10.04699993133545 22.441999435424805,29.812000274658203 22.441999435424805,29.812000274658203z"></path><path id="l_d_27" stroke-linecap="round" stroke-linejoin="miter" fill-opacity="0" stroke-miterlimit="4" stroke="rgb(0,0,0)" stroke-opacity="1" stroke-width="5" d=" M22.441999435424805,29.812000274658203 C35.7130012512207,38.84700012207031 56.04100036621094,48.446998596191406 67.0530014038086,50.987998962402344 C78.06500244140625,53.52899932861328 39.948001861572266,52.11800003051758 24.982999801635742,59.45899963378906 C10.017999649047852,66.80000305175781 -1.5579999685287476,70.75299835205078 -6.076000213623047,71.88200378417969 C-10.593999862670898,73.01100158691406 0.13600000739097595,59.17599868774414 -2.4049999713897705,36.5880012512207 C-2.4049999713897705,36.5880012512207 -16.41200065612793,17.511999130249023 -46.73500061035156,2.1410000324249268 C-63.66999816894531,-6.443999767303467 -70.62000274658203,-8.390000343322754 -85.6989974975586,-15.928999900817871 C-93.04000091552734,-19.600000381469727 -126.19400024414062,-43.625999450683594 -84.85199737548828,-29.48200035095215 C-65.22000122070312,-22.764999389648438 -54.07600021362305,-17.340999603271484 -44.194000244140625,-11.411999702453613 C-26.572999954223633,-0.8389999866485596 -20.47599983215332,2.4230000972747803 -20.47599983215332,2.4230000972747803 C-20.47599983215332,2.4230000972747803 -21.322999954223633,3.8350000381469727 -15.394000053405762,1.0119999647140503 C-9.46500015258789,-1.812000036239624 -1.840999960899353,6.093999862670898 -1.840999960899353,6.093999862670898 C-1.840999960899353,6.093999862670898 19.618000030517578,-16.777000427246094 33.736000061035156,-27.224000930786133 C47.854000091552734,-37.67100143432617 63.52899932861328,-44.612998962402344 80.04100036621094,-50.941001892089844 C127.19400024414062,-69.01100158691406 101.5,-40.777000427246094 87.9469985961914,-32.305999755859375 C74.39399719238281,-23.834999084472656 67.61799621582031,-18.18899917602539 52.37099838256836,-4.071000099182129 C37.124000549316406,10.04699993133545 22.441999435424805,29.812000274658203 22.441999435424805,29.812000274658203z"></path></g><g id="l_d_16" style="display: block;" transform="matrix(0.4401664137840271,-0.09356025606393814,0.09356025606393814,0.4401664137840271,-132.1350860595703,102.49452209472656)" opacity="1"><path id="l_d_20" fill="rgb(255,255,255)" fill-opacity="1" d=" M23.441999435424805,24.312000274658203 C36.7130012512207,33.34700012207031 58.54199981689453,51.946998596191406 69.5530014038086,54.487998962402344 C80.56500244140625,57.02899932861328 41.5,56.5 24.982999801635742,59.45899963378906 C8.576000213623047,62.39799880981445 -12.057999610900879,69.75299835205078 -16.576000213623047,70.88200378417969 C-21.0939998626709,72.01100158691406 -5.863999843597412,53.67599868774414 -8.404999732971191,31.08799934387207 C-8.404999732971191,31.08799934387207 -8.5,21.5 -38.23500061035156,17.641000747680664 C-58.67900085449219,14.98799991607666 -64.947998046875,32.584999084472656 -81.1989974975586,37.07099914550781 C-90,39.5 -157.5,63.5 -95.85199737548828,-2.4820001125335693 C-81.68699645996094,-17.64299964904785 -72.5,-17 -58.194000244140625,-23.41200065612793 C-39.441001892089844,-31.81599998474121 -20.47599983215332,2.4230000972747803 -20.47599983215332,2.4230000972747803 C-20.47599983215332,2.4230000972747803 -20.322999954223633,-1.6649999618530273 -14.394000053405762,-4.48799991607666 C-8.46500015258789,-7.311999797821045 5.158999919891357,0.593999981880188 5.158999919891357,0.593999981880188 C5.158999919891357,0.593999981880188 13.616000175476074,-36.28200149536133 25.736000061035156,-38.7239990234375 C42,-42 65.04499816894531,-45.47800064086914 81.04100036621094,-37.941001892089844 C160.5,-0.5 86.5,-0.5 70.4469985961914,-2.305999994277954 C54.564998626708984,-4.0929999351501465 55.03099822998047,-0.14499999582767487 43.37099838256836,8.928999900817871 C33,17 23.441999435424805,24.312000274658203 23.441999435424805,24.312000274658203z"></path><path id="l_d_21" stroke-linecap="round" stroke-linejoin="miter" fill-opacity="0" stroke-miterlimit="4" stroke="rgb(0,0,0)" stroke-opacity="1" stroke-width="5" d=" M23.441999435424805,24.312000274658203 C36.7130012512207,33.34700012207031 58.54199981689453,51.946998596191406 69.5530014038086,54.487998962402344 C80.56500244140625,57.02899932861328 41.5,56.5 24.982999801635742,59.45899963378906 C8.576000213623047,62.39799880981445 -12.057999610900879,69.75299835205078 -16.576000213623047,70.88200378417969 C-21.0939998626709,72.01100158691406 -5.863999843597412,53.67599868774414 -8.404999732971191,31.08799934387207 C-8.404999732971191,31.08799934387207 -8.5,21.5 -38.23500061035156,17.641000747680664 C-58.67900085449219,14.98799991607666 -64.947998046875,32.584999084472656 -81.1989974975586,37.07099914550781 C-90,39.5 -157.5,63.5 -95.85199737548828,-2.4820001125335693 C-81.68699645996094,-17.64299964904785 -72.5,-17 -58.194000244140625,-23.41200065612793 C-39.441001892089844,-31.81599998474121 -20.47599983215332,2.4230000972747803 -20.47599983215332,2.4230000972747803 C-20.47599983215332,2.4230000972747803 -20.322999954223633,-1.6649999618530273 -14.394000053405762,-4.48799991607666 C-8.46500015258789,-7.311999797821045 5.158999919891357,0.593999981880188 5.158999919891357,0.593999981880188 C5.158999919891357,0.593999981880188 13.616000175476074,-36.28200149536133 25.736000061035156,-38.7239990234375 C42,-42 65.04499816894531,-45.47800064086914 81.04100036621094,-37.941001892089844 C160.5,-0.5 86.5,-0.5 70.4469985961914,-2.305999994277954 C54.564998626708984,-4.0929999351501465 55.03099822998047,-0.14499999582767487 43.37099838256836,8.928999900817871 C33,17 23.441999435424805,24.312000274658203 23.441999435424805,24.312000274658203z"></path></g><g id="l_d_10" transform="matrix(0.48907381296157837,-0.10395584255456924,0.10395584255456924,0.48907381296157837,-146.46400451660156,171.53799438476562)" opacity="1" style="display: block;"><path id="l_d_14" fill="rgb(255,255,255)" fill-opacity="1" d=" M22.441999435424805,29.812000274658203 C35.7130012512207,38.84700012207031 56.04100036621094,48.446998596191406 67.0530014038086,50.987998962402344 C78.06500244140625,53.52899932861328 39.948001861572266,52.11800003051758 24.982999801635742,59.45899963378906 C10.017999649047852,66.80000305175781 -1.5579999685287476,70.75299835205078 -6.076000213623047,71.88200378417969 C-10.593999862670898,73.01100158691406 0.13600000739097595,59.17599868774414 -2.4049999713897705,36.5880012512207 C-2.4049999713897705,36.5880012512207 -16.41200065612793,17.511999130249023 -46.73500061035156,2.1410000324249268 C-63.66999816894531,-6.443999767303467 -70.62000274658203,-8.390000343322754 -85.6989974975586,-15.928999900817871 C-93.04000091552734,-19.600000381469727 -126.19400024414062,-43.625999450683594 -84.85199737548828,-29.48200035095215 C-65.22000122070312,-22.764999389648438 -54.07600021362305,-17.340999603271484 -44.194000244140625,-11.411999702453613 C-26.572999954223633,-0.8389999866485596 -20.47599983215332,2.4230000972747803 -20.47599983215332,2.4230000972747803 C-20.47599983215332,2.4230000972747803 -21.322999954223633,3.8350000381469727 -15.394000053405762,1.0119999647140503 C-9.46500015258789,-1.812000036239624 -1.840999960899353,6.093999862670898 -1.840999960899353,6.093999862670898 C-1.840999960899353,6.093999862670898 19.618000030517578,-16.777000427246094 33.736000061035156,-27.224000930786133 C47.854000091552734,-37.67100143432617 63.52899932861328,-44.612998962402344 80.04100036621094,-50.941001892089844 C127.19400024414062,-69.01100158691406 101.5,-40.777000427246094 87.9469985961914,-32.305999755859375 C74.39399719238281,-23.834999084472656 67.61799621582031,-18.18899917602539 52.37099838256836,-4.071000099182129 C37.124000549316406,10.04699993133545 22.441999435424805,29.812000274658203 22.441999435424805,29.812000274658203z"></path><path id="l_d_15" stroke-linecap="round" stroke-linejoin="miter" fill-opacity="0" stroke-miterlimit="4" stroke="rgb(0,0,0)" stroke-opacity="1" stroke-width="5" d=" M22.441999435424805,29.812000274658203 C35.7130012512207,38.84700012207031 56.04100036621094,48.446998596191406 67.0530014038086,50.987998962402344 C78.06500244140625,53.52899932861328 39.948001861572266,52.11800003051758 24.982999801635742,59.45899963378906 C10.017999649047852,66.80000305175781 -1.5579999685287476,70.75299835205078 -6.076000213623047,71.88200378417969 C-10.593999862670898,73.01100158691406 0.13600000739097595,59.17599868774414 -2.4049999713897705,36.5880012512207 C-2.4049999713897705,36.5880012512207 -16.41200065612793,17.511999130249023 -46.73500061035156,2.1410000324249268 C-63.66999816894531,-6.443999767303467 -70.62000274658203,-8.390000343322754 -85.6989974975586,-15.928999900817871 C-93.04000091552734,-19.600000381469727 -126.19400024414062,-43.625999450683594 -84.85199737548828,-29.48200035095215 C-65.22000122070312,-22.764999389648438 -54.07600021362305,-17.340999603271484 -44.194000244140625,-11.411999702453613 C-26.572999954223633,-0.8389999866485596 -20.47599983215332,2.4230000972747803 -20.47599983215332,2.4230000972747803 C-20.47599983215332,2.4230000972747803 -21.322999954223633,3.8350000381469727 -15.394000053405762,1.0119999647140503 C-9.46500015258789,-1.812000036239624 -1.840999960899353,6.093999862670898 -1.840999960899353,6.093999862670898 C-1.840999960899353,6.093999862670898 19.618000030517578,-16.777000427246094 33.736000061035156,-27.224000930786133 C47.854000091552734,-37.67100143432617 63.52899932861328,-44.612998962402344 80.04100036621094,-50.941001892089844 C127.19400024414062,-69.01100158691406 101.5,-40.777000427246094 87.9469985961914,-32.305999755859375 C74.39399719238281,-23.834999084472656 67.61799621582031,-18.18899917602539 52.37099838256836,-4.071000099182129 C37.124000549316406,10.04699993133545 22.441999435424805,29.812000274658203 22.441999435424805,29.812000274658203z"></path></g></g></svg>